<?xml version="1.0" encoding="UTF-8" standalone="no"?>
<svg
   xmlns:dc="http://purl.org/dc/elements/1.1/"
   xmlns:cc="http://creativecommons.org/ns#"
   xmlns:rdf="http://www.w3.org/1999/02/22-rdf-syntax-ns#"
   xmlns:svg="http://www.w3.org/2000/svg"
   xmlns="http://www.w3.org/2000/svg"
   xmlns:sodipodi="http://sodipodi.sourceforge.net/DTD/sodipodi-0.dtd"
   xmlns:inkscape="http://www.inkscape.org/namespaces/inkscape"
   viewBox="0 0 500 600"
   version="1.1"
   id="svg2"
   inkscape:version="0.48.4 r9939"
   width="100%"
   height="100%"
   sodipodi:docname="basic svg">
  <metadata
     id="metadata17">
    <rdf:RDF>
      <cc:Work
         rdf:about="">
        <dc:format>image/svg+xml</dc:format>
        <dc:type
           rdf:resource="http://purl.org/dc/dcmitype/StillImage" />
        <dc:title></dc:title>
      </cc:Work>
    </rdf:RDF>
  </metadata>
  <defs
     id="defs15">
    <inkscape:perspective
       sodipodi:type="inkscape:persp3d"
       inkscape:vp_x="-13.769249 : 289.6729 : 1"
       inkscape:vp_y="0 : -893.34711 : 0"
       inkscape:vp_z="497.71778 : 289.6729 : 1"
       inkscape:persp3d-origin="241.97427 : 379.00761 : 1"
       id="perspective3002" />
  </defs>
  <sodipodi:namedview
     pagecolor="#ffffff"
     bordercolor="#666666"
     borderopacity="1"
     objecttolerance="10"
     gridtolerance="10"
     guidetolerance="10"
     inkscape:pageopacity="0"
     inkscape:pageshadow="2"
     inkscape:window-width="1335"
     inkscape:window-height="1026"
     id="namedview13"
     showgrid="false"
     inkscape:zoom="2.2250293"
     inkscape:cx="264.43243"
     inkscape:cy="325.4412"
     inkscape:window-x="65"
     inkscape:window-y="24"
     inkscape:window-maximized="1"
     inkscape:current-layer="svg2" />
  <rect
     id="r1"
     x="98.202263"
     y="130.5614"
     width="300"
     height="300"
     style="fill:#ffff00;stroke:#000000;stroke-width:3" />
  <circle
     id="c1"
     cx="150"
     cy="200"
     r="50"
     sodipodi:cx="150"
     sodipodi:cy="200"
     sodipodi:rx="50"
     sodipodi:ry="50"
     transform="matrix(1.095592,0,0,0.73604618,-8.2714649,62.94788)"
     style="fill:#ffa500;stroke:#000080;stroke-width:10" />
  <circle
     id="c2"
     cx="350"
     cy="200"
     r="50"
     sodipodi:cx="350"
     sodipodi:cy="200"
     sodipodi:rx="50"
     sodipodi:ry="50"
     transform="matrix(1.0694069,0,0,0.81772478,-33.281046,46.791986)"
     style="fill:#ffa500;stroke:#000080;stroke-width:10" />
  <linearGradient
     id="linearGradient7"
     x1="0%"
     y1="0%"
     x2="80%"
     y2="80%" />
  <linearGradient
     id="linearGradient9"
     x1="80%"
     y1="80%"
     x2="0%"
     y2="0%" />
  <rect
     x="146.40454"
     y="353.93188"
     width="208.98865"
     height="26.404541"
     id="rect11"
     style="fill:#000080" />
  <g
     sodipodi:type="inkscape:box3d"
     style="fill:#d40000"
     id="g3004"
     inkscape:perspectiveID="#perspective3002"
     inkscape:corner0="0.20141972 : 0.086226349 : 0 : 1"
     inkscape:corner7="-0.024109941 : 0.054601403 : 0.25 : 1">
    <path
       sodipodi:type="inkscape:box3dside"
       id="path3010"
       style="fill:#8686bf;fill-rule:evenodd;stroke:none"
       inkscape:box3dsidetype="3"
       d="m 199.09851,300.08534 49.19405,-2.36688 0,-28.95004 -49.19405,7.80136 z" />
    <path
       sodipodi:type="inkscape:box3dside"
       id="path3012"
       style="fill:#d7d7ff;fill-rule:evenodd;stroke:none"
       inkscape:box3dsidetype="14"
       d="m 248.29256,297.71846 0,-28.95004 50.86615,8.4752 0,23.04616 z" />
    <path
       sodipodi:type="inkscape:box3dside"
       id="path3008"
       style="fill:#4d4d9f;fill-rule:evenodd;stroke:none"
       inkscape:box3dsidetype="5"
       d="m 199.09851,300.08534 49.19405,-2.36688 50.86615,2.57132 -48.62448,1.55965 z" />
    <path
       sodipodi:type="inkscape:box3dside"
       id="path3014"
       style="fill:#afafde;fill-rule:evenodd;stroke:none"
       inkscape:box3dsidetype="13"
       d="m 199.09851,276.56978 49.19405,-7.80136 50.86615,8.4752 -48.62448,5.1407 z" />
    <path
       sodipodi:type="inkscape:box3dside"
       id="path3006"
       style="fill:#353564;fill-rule:evenodd;stroke:none"
       inkscape:box3dsidetype="6"
       d="m 199.09851,300.08534 0,-23.51556 51.43572,5.81454 0,19.46511 z" />
    <path
       sodipodi:type="inkscape:box3dside"
       id="path3016"
       style="fill:#e9e9ff;fill-rule:evenodd;stroke:none"
       inkscape:box3dsidetype="11"
       d="m 250.53423,301.84943 48.62448,-1.55965 0,-23.04616 -48.62448,5.1407 z" />
  </g>
  <path
     style="fill:#d40000"
     id="path3032"
     d="m 103.81837,132.4422 c 0.93253,0.9685 1.92009,1.87636 2.85092,2.84718 0.82758,0.821 1.45345,1.81312 2.28295,2.63111 0.59205,0.58377 1.16535,1.19646 1.79827,1.73653 0.4635,0.47709 0.92044,0.96439 1.48303,1.32679 0.58642,0.41482 1.09855,0.91694 1.65565,1.36663 0.0863,0.0475 0.17698,0.0878 0.25898,0.14241 0.34594,0.23039 0.18789,0.19515 0.54094,0.37587 0.29847,0.15278 0.61503,0.21379 0.91706,0.36568 0.41249,0.17321 0.20293,0.0973 0.62858,0.22812 0,0 -5.52733,3.73745 -5.52733,3.73745 l 0,0 c -0.45389,-0.17756 -0.23283,-0.0853 -0.66358,-0.27594 -0.65784,-0.26285 -1.26411,-0.58767 -1.81696,-1.0371 -0.52349,-0.45842 -1.04828,-0.914 -1.61578,-1.31852 -0.55822,-0.41294 -1.04974,-0.89589 -1.53149,-1.39482 -0.61415,-0.57828 -1.20906,-1.17865 -1.78662,-1.79319 -0.8023,-0.84548 -1.45897,-1.81194 -2.27392,-2.64578 -0.9132,-0.95689 -1.851491,-1.8898 -2.846667,-2.76176 0,0 5.645967,-3.53066 5.645967,-3.53066 z"
     inkscape:connector-curvature="0" />
  <path
     style="fill:#d40000"
     id="path3034"
     d="m 111.86325,132.52105 c 1.27606,0.26581 2.46959,0.72222 3.61056,1.3469 0.87777,0.49486 1.43371,1.22822 1.99173,2.03649 0.70691,0.89249 1.28988,1.87332 1.86925,2.85208 0.54963,0.83343 1.12365,1.66636 1.74473,2.44994 0.56101,0.63632 1.17063,1.26536 1.91379,1.68604 0.56591,0.53805 1.30876,0.59358 2.01002,0.82259 0.80127,0.15951 1.52938,0.52176 2.32614,0.69814 0.39,0.0215 0.74248,0.19015 1.10737,0.31206 0,0 -5.51701,3.74884 -5.51701,3.74884 l 0,0 c -0.35535,-0.11264 -0.71306,-0.2103 -1.07949,-0.28168 -0.78161,-0.23026 -1.53665,-0.54242 -2.33524,-0.71747 -0.77051,-0.19925 -1.49127,-0.46082 -2.1138,-0.97768 -0.76003,-0.52847 -1.43632,-1.17898 -2.03051,-1.88785 -0.61542,-0.8231 -1.21429,-1.66608 -1.76051,-2.53607 -0.56507,-0.96798 -1.15839,-1.92197 -1.86666,-2.7923 -0.50768,-0.71382 -1.00517,-1.3656 -1.80581,-1.783 -1.10949,-0.56804 -2.26346,-0.99964 -3.5132,-1.13529 0,0 5.44864,-3.84174 5.44864,-3.84174 z"
     inkscape:connector-curvature="0" />
  <path
     style="fill:#d40000"
     id="path3036"
     d="m 125.77925,134.41964 c 1.494,0.32044 2.75783,1.10966 3.93551,2.04933 1.20039,0.96205 2.34875,1.98661 3.5609,2.93335 0.56509,0.57502 1.2154,1.03151 1.84386,1.52294 0,0 -5.6438,3.56592 -5.6438,3.56592 l 0,0 c -0.64898,-0.47406 -1.2294,-1.01847 -1.81528,-1.5686 -1.1646,-0.98739 -2.30063,-2.00979 -3.50756,-2.94639 -1.1803,-0.87817 -2.43466,-1.53955 -3.89699,-1.809 0,0 5.52336,-3.74755 5.52336,-3.74755 z"
     inkscape:connector-curvature="0" />
  <path
     style="fill:#d40000"
     id="path3038"
     d="m 133.89365,130.01956 c 1.27063,0.6746 2.51478,1.39402 3.77151,2.09315 1.05227,0.65363 2.11023,1.2996 3.14414,1.98286 0.91551,0.70735 1.87723,1.34042 2.87331,1.92673 0.7307,0.39635 1.38457,0.89659 2.05731,1.37826 0.46289,0.48945 1.07903,0.76859 1.583,1.2088 0.0829,0.0589 0.16585,0.11775 0.24877,0.17662 0,0 -5.64194,3.57363 -5.64194,3.57363 l 0,0 c -0.089,-0.0683 -0.17791,-0.13659 -0.26686,-0.20488 -0.52043,-0.3947 -1.08977,-0.72498 -1.55914,-1.18455 -0.64172,-0.49045 -1.31308,-0.9314 -2.00897,-1.34193 -0.97126,-0.6253 -1.92209,-1.27496 -2.85323,-1.95858 -1.03305,-0.66024 -2.07226,-1.31199 -3.11544,-1.9557 -1.24109,-0.72531 -2.49046,-1.44179 -3.80506,-2.02784 0,0 5.5726,-3.66657 5.5726,-3.66657 z"
     inkscape:connector-curvature="0" />
  <path
     style="fill:#d40000"
     id="path3040"
     d="m 151.84145,133.39444 c 0.88061,1.1335 1.94688,2.12767 3.10418,2.97329 1.06658,0.73129 2.15961,1.46117 3.33764,2.00257 0.715,0.36324 1.51831,0.51439 2.24608,0.83171 0.10875,0.0418 0.2175,0.0835 0.32625,0.12525 0,0 -5.53899,3.72129 -5.53899,3.72129 l 0,0 c -0.10834,-0.0418 -0.21668,-0.0836 -0.32502,-0.12545 -0.77335,-0.25123 -1.52077,-0.55191 -2.25532,-0.90295 -1.16694,-0.62856 -2.28739,-1.35551 -3.36017,-2.13224 -1.17992,-0.91877 -2.27164,-1.94946 -3.2633,-3.06956 0,0 5.72865,-3.42391 5.72865,-3.42391 z"
     inkscape:connector-curvature="0" />
  <path
     style="fill:#d40000"
     id="path3042"
     d="m 164.45719,132.91526 c 1.02497,1.17273 2.04258,2.33963 3.23254,3.34986 0.88467,0.89736 2.03493,1.40648 3.04596,2.12144 0.7177,0.49618 1.48281,0.92628 2.14368,1.49845 0.37249,0.25093 0.74217,0.50507 1.12861,0.73603 0,0 -5.61296,3.61373 -5.61296,3.61373 l 0,0 c -0.39576,-0.2622 -0.8034,-0.51084 -1.16911,-0.81456 -0.66579,-0.53045 -1.39481,-0.97112 -2.08969,-1.46152 -1.04176,-0.70151 -2.13905,-1.31852 -3.03855,-2.21564 -1.17122,-1.05638 -2.20154,-2.24151 -3.32488,-3.34439 0,0 5.6844,-3.4834 5.6844,-3.4834 z"
     inkscape:connector-curvature="0" />
  <path
     style="fill:#d40000"
     id="path3044"
     d="m 175.69299,130.6681 c 0.86563,0.84388 1.88009,1.50793 2.79335,2.29469 0.58199,0.50013 1.17227,0.97187 1.82677,1.374 0.4731,0.46172 1.10052,0.67017 1.6924,0.93449 1.01964,0.44638 2.04054,0.87378 3.09098,1.25407 1.35547,0.55335 2.73323,1.066 4.14915,1.44222 0.60969,0.25441 1.25021,0.40976 1.84344,0.69858 0,0 -5.54979,3.68494 -5.54979,3.68494 l 0,0 c -0.57685,-0.23382 -1.16567,-0.4376 -1.75225,-0.64564 -1.40501,-0.43095 -2.7776,-0.95428 -4.14317,-1.49609 -1.08475,-0.37802 -2.14844,-0.80067 -3.20423,-1.25252 -0.61114,-0.29371 -1.23972,-0.54618 -1.74509,-1.01598 -0.6491,-0.44933 -1.26229,-0.93204 -1.84349,-1.46701 -0.92709,-0.79905 -1.92004,-1.51734 -2.84247,-2.32235 0,0 5.6844,-3.4834 5.6844,-3.4834 z"
     inkscape:connector-curvature="0" />
  <path
     style="fill:#d40000"
     id="path3046"
     d="m 193.74183,132.42346 c 2.22397,1.48264 4.84063,2.07594 7.41199,2.63874 3.66822,0.76297 7.27268,1.77245 10.78957,3.06179 1.88808,0.58135 3.66555,1.43559 5.44876,2.26992 0.64543,0.3838 0.33447,0.20346 0.93189,0.54268 0,0 -5.57557,3.61601 -5.57557,3.61601 l 0,0 c -0.56802,-0.34284 -0.27627,-0.16982 -0.87562,-0.51842 -1.71469,-0.86581 -3.44965,-1.69206 -5.27156,-2.31308 -3.47224,-1.31805 -7.04328,-2.32136 -10.69423,-3.01524 -2.70067,-0.57851 -5.3941,-1.25908 -7.77768,-2.71427 0,0 5.61245,-3.56813 5.61245,-3.56813 z"
     inkscape:connector-curvature="0" />
  <path
     style="fill:#d40000"
     id="path3048"
     d="m 214.31741,130.37474 c 1.18186,0.52222 2.29926,1.16425 3.43075,1.78318 0.85518,0.54089 1.77276,0.98316 2.62188,1.52944 0.61833,0.33631 1.13683,0.81958 1.67781,1.26541 0.69892,0.53858 1.38322,1.09183 2.06636,1.65282 0.68023,0.40119 1.20872,1.01226 1.90358,1.38518 0.43614,0.39346 0.95011,0.54899 1.51418,0.64641 0,0 -5.48418,3.79275 -5.48418,3.79275 l 0,0 c -0.59744,-0.17584 -1.14091,-0.43202 -1.63367,-0.81952 -0.67218,-0.45358 -1.26307,-1.01718 -1.93603,-1.47192 -0.68753,-0.55658 -1.37352,-1.10992 -2.08135,-1.64019 -0.52802,-0.41888 -1.0291,-0.87739 -1.62667,-1.19932 -0.85617,-0.50898 -1.70194,-1.03327 -2.56617,-1.52909 -1.09687,-0.62435 -2.20664,-1.24993 -3.40985,-1.6476 0,0 5.52336,-3.74755 5.52336,-3.74755 z"
     inkscape:connector-curvature="0" />
  <path
     style="fill:#d40000"
     id="path3050"
     d="m 234.10273,132.82828 c 1.00639,0.94135 2.09906,1.77472 3.18675,2.61624 0.84883,0.71728 1.76188,1.36038 2.74151,1.88565 0.85268,0.46022 1.70498,0.9139 2.55026,1.38671 0.70508,0.45483 1.48089,0.76603 2.20027,1.19921 0.66802,0.37032 1.31472,0.77239 1.98414,1.14214 0.47144,0.19647 0.93838,0.40255 1.37459,0.66829 0,0 -5.58592,3.63624 -5.58592,3.63624 l 0,0 c -0.45662,-0.23314 -0.93016,-0.42946 -1.38357,-0.66921 -0.65475,-0.38961 -1.31345,-0.77225 -1.97558,-1.14837 -0.7324,-0.40082 -1.48925,-0.75552 -2.19602,-1.20136 -0.83142,-0.48967 -1.69988,-0.90818 -2.53512,-1.39128 -0.97881,-0.58081 -1.90656,-1.23884 -2.76635,-1.98643 -1.08733,-0.85693 -2.15657,-1.73421 -3.24644,-2.58799 0,0 5.65148,-3.54984 5.65148,-3.54984 z"
     inkscape:connector-curvature="0" />
  <path
     style="fill:#d40000"
     id="path3052"
     d="m 252.97889,134.17657 c 0.96291,0.96582 2.00811,1.84695 3.01301,2.76917 0.95025,0.95407 2.00242,1.78624 3.02667,2.65449 1.00673,0.75684 1.98036,1.55204 2.99586,2.29663 0.60169,0.37181 0.31104,0.17561 0.87266,0.58751 0,0 -5.60951,3.55917 -5.60951,3.55917 l 0,0 c -0.54364,-0.3926 -0.25713,-0.19173 -0.86107,-0.60042 -1.01714,-0.75721 -1.99195,-1.56817 -2.9979,-2.34017 -1.04892,-0.85508 -2.07678,-1.73102 -3.03842,-2.68553 -0.9988,-0.91833 -2.01812,-1.81323 -3.05279,-2.691 0,0 5.65149,-3.54985 5.65149,-3.54985 z"
     inkscape:connector-curvature="0" />
  <path
     style="fill:#d40000"
     id="path3054"
     d="m 265.99725,132.94501 c 0.80604,1.02806 1.62975,2.04378 2.39038,3.10654 0.58486,0.7364 1.17391,1.46734 1.76843,2.19647 0.57178,0.5122 1.04525,1.14697 1.71426,1.53707 0.50899,0.43477 1.09824,0.74727 1.63648,1.13535 0.09,0.0519 0.17997,0.1038 0.26995,0.1557 0,0 -5.60811,3.62437 -5.60811,3.62437 l 0,0 c -0.0961,-0.0611 -0.19222,-0.12219 -0.28833,-0.18328 -0.56192,-0.3529 -1.09248,-0.74475 -1.62853,-1.13586 -0.66768,-0.49539 -1.21943,-1.12285 -1.80213,-1.71258 -0.60861,-0.73514 -1.1924,-1.48928 -1.76023,-2.25604 -0.74541,-1.06074 -1.54892,-2.08397 -2.42083,-3.04383 0,0 5.72866,-3.42391 5.72866,-3.42391 z"
     inkscape:connector-curvature="0" />
  <path
     style="fill:#d40000"
     id="path3056"
     d="m 279.96128,132.46582 c 0.9001,1.07632 1.84197,2.11814 2.85575,3.08912 0.95757,0.98294 2.00785,1.83251 3.13183,2.61287 0.97997,0.78665 2.12481,1.29592 3.20941,1.91058 0.7456,0.38367 1.41599,0.86261 2.21426,1.13491 0,0 -5.52851,3.70659 -5.52851,3.70659 l 0,0 c -0.7795,-0.34821 -1.47564,-0.83254 -2.23089,-1.22788 -1.11161,-0.60662 -2.24149,-1.1794 -3.23916,-1.97153 -1.14533,-0.804 -2.18755,-1.71431 -3.17254,-2.70998 -1.01497,-0.98396 -1.93748,-2.05004 -2.92455,-3.06127 0,0 5.6844,-3.48341 5.6844,-3.48341 z"
     inkscape:connector-curvature="0" />
  <path
     style="fill:#d40000"
     id="path3058"
     d="m 293.86205,133.84387 c 0.81834,1.03649 1.67673,2.04732 2.56923,3.02074 0.60934,0.60817 1.2924,1.10103 2.03622,1.5273 0.42495,0.34783 0.90357,0.62071 1.38017,0.89125 0,0 -5.60543,3.62903 -5.60543,3.62903 l 0,0 c -0.46668,-0.29079 -0.94525,-0.56227 -1.37936,-0.90186 -0.76363,-0.49761 -1.48245,-1.03704 -2.09449,-1.72042 -0.87475,-1.0105 -1.73768,-2.03081 -2.63499,-3.02213 0,0 5.72865,-3.42391 5.72865,-3.42391 z"
     inkscape:connector-curvature="0" />
  <path
     style="fill:#d40000"
     id="path3060"
     d="m 305.61574,130.90474 c 1.63821,0.81318 3.36343,1.44174 5.07675,2.0791 1.22147,0.38833 2.41325,0.88076 3.54684,1.47903 0.14556,0.0677 0.29571,0.12625 0.4367,0.203 0.79726,0.43396 0.0217,0.0818 0.76291,0.46046 0.34444,0.17599 0.7064,0.26874 1.05197,0.44462 0.61089,0.30018 1.18168,0.67342 1.77683,1.0064 0.3671,0.28833 0.66437,0.66292 0.93887,1.03857 0,0 -5.74407,3.40723 -5.74407,3.40723 l 0,0 c -0.23053,-0.30054 -0.46785,-0.61096 -0.79552,-0.81052 -0.56776,-0.34095 -1.14139,-0.67859 -1.73915,-0.963 -0.77504,-0.33315 -1.49792,-0.74354 -2.24071,-1.14143 -1.11581,-0.55371 -2.2545,-1.06392 -3.43418,-1.46763 -1.72868,-0.67655 -3.46782,-1.32559 -5.18023,-2.04189 0,0 5.54299,-3.69394 5.54299,-3.69394 z"
     inkscape:connector-curvature="0" />
  <path
     style="fill:#d40000"
     id="path3062"
     d="m 324.04246,130.45531 c 1.13671,0.40914 2.14657,1.08148 3.23793,1.58427 1.01122,0.47625 1.82396,1.25417 2.75931,1.85058 0.86884,0.62688 1.77043,1.22168 2.61607,1.88001 0.6852,0.53919 1.47864,0.90913 2.19574,1.39645 0.62954,0.40123 1.33347,0.67346 1.96529,1.06519 0.59128,0.3173 1.2305,0.55213 1.80244,0.90287 0.38384,0.19638 0.18767,0.11056 0.58818,0.25817 0,0 -5.55199,3.70424 -5.55199,3.70424 l 0,0 c -0.43384,-0.20416 -0.22411,-0.0981 -0.62988,-0.31693 -0.60545,-0.2965 -1.21127,-0.5928 -1.8052,-0.91157 -0.66873,-0.3479 -1.33434,-0.70396 -1.97181,-1.1071 -0.74799,-0.46719 -1.52804,-0.88634 -2.21832,-1.44127 -0.84231,-0.63402 -1.6904,-1.26574 -2.56355,-1.85568 -0.9009,-0.6062 -1.73719,-1.31721 -2.73275,-1.77047 -1.0595,-0.55356 -2.08519,-1.1836 -3.23445,-1.54482 0,0 5.54299,-3.69394 5.54299,-3.69394 z"
     inkscape:connector-curvature="0" />
  <path
     style="fill:#d40000"
     id="path3064"
     d="m 345.5784,132.91526 c 0.74213,0.96352 1.65259,1.77852 2.6597,2.45455 0.82872,0.54617 1.54288,1.24114 2.44435,1.67092 0.79894,0.46898 1.69349,0.73586 2.51771,1.14492 0.70896,0.25895 1.40538,0.56058 2.12913,0.77915 0.11551,0.0245 0.23102,0.0489 0.34653,0.0734 0,0 -5.49182,3.78223 -5.49182,3.78223 l 0,0 c -0.12528,-0.0376 -0.25055,-0.0751 -0.37583,-0.11266 -0.7251,-0.26893 -1.45969,-0.51812 -2.15941,-0.84849 -0.85314,-0.37175 -1.7165,-0.72338 -2.53252,-1.17488 -0.87887,-0.50817 -1.63039,-1.18581 -2.46754,-1.7559 -1.00921,-0.74266 -1.92006,-1.59462 -2.75471,-2.52987 0,0 5.68441,-3.4834 5.68441,-3.4834 z"
     inkscape:connector-curvature="0" />
  <path
     style="fill:#d40000"
     id="path3066"
     d="m 363.10625,132.01639 c 0.99016,1.0901 2.04705,2.11154 3.15714,3.07782 0.85954,0.6996 1.7526,1.34158 2.70682,1.90392 0.69242,0.20608 1.30262,0.54572 1.92195,0.90633 0.61666,0.2599 1.26978,0.45939 1.85425,0.78899 0.39654,0.19035 0.19471,0.10681 0.60519,0.25131 0,0 -5.54395,3.71519 -5.54395,3.71519 l 0,0 c -0.43845,-0.19332 -0.22569,-0.0937 -0.63879,-0.29769 -0.62893,-0.26979 -1.27128,-0.51378 -1.88009,-0.82595 -0.61507,-0.36662 -1.29032,-0.58785 -1.91718,-0.92993 -0.94414,-0.62193 -1.84554,-1.29254 -2.70055,-2.03402 -1.12021,-0.9866 -2.16861,-2.04352 -3.24919,-3.07256 0,0 5.6844,-3.48341 5.6844,-3.48341 z"
     inkscape:connector-curvature="0" />
  <path
     style="fill:#d40000"
     id="path3068"
     d="m 381.50622,132.17247 c 1.0314,0.48788 2.10789,0.89354 3.113,1.43452 0.73809,0.27949 1.38132,0.70093 2.03491,1.13005 0.59211,0.45869 1.22943,0.82771 1.8801,1.19385 0.12077,0.0541 0.24588,0.0993 0.36231,0.16223 0.63398,0.34238 0.0864,0.11773 0.69522,0.41269 0.34054,0.16498 0.69473,0.24684 1.03543,0.41492 0.6182,0.29462 1.19429,0.66883 1.79337,1.00301 0.0967,0.0383 0.19339,0.0765 0.29008,0.11481 0,0 -5.56327,3.6884 -5.56327,3.6884 l 0,0 c -0.10886,-0.0557 -0.21772,-0.11133 -0.32658,-0.16699 -0.56986,-0.34027 -1.14677,-0.67694 -1.75101,-0.95116 -0.73304,-0.29692 -1.42428,-0.65534 -2.11632,-1.03783 -0.67333,-0.36317 -1.29032,-0.80748 -1.92296,-1.23623 -0.62156,-0.42734 -1.29161,-0.75448 -1.969,-1.08388 -0.9992,-0.50063 -2.01477,-0.98325 -3.07865,-1.33084 0,0 5.52337,-3.74755 5.52337,-3.74755 z"
     inkscape:connector-curvature="0" />
  <path
     style="fill:#d40000"
     id="path3070"
     d="m 394.98431,132.04614 c 0.66633,0.79741 1.5273,1.37014 2.35093,1.98316 0.59769,0.27576 1.07526,0.66266 1.57002,1.08653 0,0 -5.6672,3.52809 -5.6672,3.52809 l 0,0 c -0.47117,-0.41428 -0.99907,-0.71296 -1.52212,-1.05699 -0.87057,-0.64588 -1.71294,-1.32747 -2.46028,-2.11688 0,0 5.72865,-3.42391 5.72865,-3.42391 z"
     inkscape:connector-curvature="0" />
  <path
     sodipodi:type="arc"
     style="fill:#d40000"
     id="path3072"
     sodipodi:cx="163.36864"
     sodipodi:cy="214.61182"
     sodipodi:rx="9.2133617"
     sodipodi:ry="7.4156327"
     d="m 172.582,214.61182 a 9.2133617,7.4156327 0 1 1 -18.42672,0 9.2133617,7.4156327 0 1 1 18.42672,0 z"
     transform="translate(28.763666,6.7414842)" />
  <path
     transform="translate(144.49247,11.460529)"
     sodipodi:type="arc"
     style="fill:#d40000"
     id="path3072-4"
     sodipodi:cx="163.36864"
     sodipodi:cy="214.61182"
     sodipodi:rx="9.2133617"
     sodipodi:ry="7.4156327"
     d="m 172.582,214.61182 a 9.2133617,7.4156327 0 1 1 -18.42672,0 9.2133617,7.4156327 0 1 1 18.42672,0 z" />
  <rect
     style="fill:#000080"
     id="rect3094"
     width="69.662003"
     height="5.8426194"
     x="213.72749"
     y="210.79164" />
</svg>
